# xmcd
#
# Track frame offsets: 
#        150
#        23364
#        57052
#        82086
#        105196
#        132487
#        158619
#        188150
#        212175
#        244752
#        273916
#        291869
#        310444
#
# Disc length: 4436 seconds
#
# Revision: 0
# Processed by: cddbd v1.5.2PL0 Copyright (c) Steve Scherf et al.
# Submitted via: ExactAudioCopy v1.0b3
#
DISCID=ad11520d
DTITLE=Rick Stel - Right Outta The Box
DYEAR=2008
DGENRE=blues
TTITLE0=It's Cold Duck Time
TTITLE1=Ain't Nobodys Business
TTITLE2=Chasin Woman Blues
TTITLE3=Play My Blues Away
TTITLE4=Ona Kanna Punna
TTITLE5=Jack Of broken Hearts
TTITLE6=Moanin
TTITLE7=Hot Sauce
TTITLE8=Mercy Mercy Mercy
TTITLE9=You Filled My Life With The Blues
TTITLE10=Up From The Skys
TTITLE11=Somethings Got A Hold On Me
TTITLE12=What Becomes Of The Brokenhearted
EXTD=
EXTT0=
EXTT1=
EXTT2=
EXTT3=
EXTT4=
EXTT5=
EXTT6=
EXTT7=
EXTT8=
EXTT9=
EXTT10=
EXTT11=
EXTT12=
PLAYORDER=
